Griffith_Gothic-Ultra.ufo
<glyph name="numbersign" format="1">
  <advance width="670"/>
  <unicode hex="0023"/>
  <outline>
    <contour>
      <point x="642" y="429" type="line"/>
      <point x="515" y="429" type="line"/>
      <point x="492" y="291" type="line"/>
      <point x="608" y="291" type="line"/>
      <point x="608" y="127" type="line"/>
      <point x="464" y="127" type="line"/>
      <point x="443" y="0" type="line"/>
      <point x="353" y="0" type="line"/>
      <point x="374" y="127" type="line"/>
      <point x="217" y="127" type="line"/>
      <point x="196" y="0" type="line"/>
      <point x="106" y="0" type="line"/>
      <point x="127" y="127" type="line"/>
      <point x="28" y="127" type="line"/>
      <point x="28" y="291" type="line"/>
      <point x="155" y="291" type="line"/>
      <point x="178" y="429" type="line"/>
      <point x="62" y="429" type="line"/>
      <point x="62" y="593" type="line"/>
      <point x="206" y="593" type="line"/>
      <point x="227" y="720" type="line"/>
      <point x="317" y="720" type="line"/>
      <point x="296" y="593" type="line"/>
      <point x="453" y="593" type="line"/>
      <point x="474" y="720" type="line"/>
      <point x="564" y="720" type="line"/>
      <point x="543" y="593" type="line"/>
      <point x="642" y="593" type="line"/>
    </contour>
    <contour>
      <point x="429" y="435" type="line"/>
      <point x="266" y="435" type="line"/>
      <point x="241" y="285" type="line"/>
      <point x="404" y="285" type="line"/>
    </contour>
  </outline>
</glyph>
<glyph name="ampersand" format="1">
  <advance width="740"/>
  <unicode hex="0026"/>
  <outline>
    <contour>
      <point x="722" y="1" type="line"/>
      <point x="693" y="-4"/>
      <point x="674" y="-7"/>
      <point x="646" y="-7" type="curve" smooth="yes"/>
      <point x="579" y="-7"/>
      <point x="531" y="5"/>
      <point x="474" y="49" type="curve"/>
      <point x="413" y="9"/>
      <point x="348" y="-10"/>
      <point x="277" y="-10" type="curve" smooth="yes"/>
      <point x="110" y="-10"/>
      <point x="12" y="62"/>
      <point x="12" y="200" type="curve" smooth="yes"/>
      <point x="12" y="288"/>
      <point x="51" y="348"/>
      <point x="166" y="409" type="curve"/>
      <point x="127" y="468"/>
      <point x="113" y="508"/>
      <point x="113" y="557" type="curve" smooth="yes"/>
      <point x="113" y="666"/>
      <point x="193" y="732"/>
      <point x="326" y="732" type="curve" smooth="yes"/>
      <point x="447" y="732"/>
      <point x="514" y="663"/>
      <point x="514" y="565" type="curve" smooth="yes"/>
      <point x="514" y="494"/>
      <point x="470" y="443"/>
      <point x="387" y="395" type="curve"/>
      <point x="426" y="347"/>
      <point x="460" y="307"/>
      <point x="490" y="274" type="curve"/>
      <point x="519" y="321"/>
      <point x="545" y="380"/>
      <point x="568" y="448" type="curve"/>
      <point x="715" y="386" type="line"/>
      <point x="678" y="295"/>
      <point x="636" y="221"/>
      <point x="591" y="162" type="curve"/>
      <point x="617" y="141"/>
      <point x="635" y="135"/>
      <point x="661" y="135" type="curve" smooth="yes"/>
      <point x="686" y="135"/>
      <point x="701" y="138"/>
      <point x="722" y="143" type="curve"/>
    </contour>
    <contour>
      <point x="364" y="563" type="curve" smooth="yes"/>
      <point x="364" y="599"/>
      <point x="351" y="623"/>
      <point x="320" y="623" type="curve" smooth="yes"/>
      <point x="287" y="623"/>
      <point x="273" y="600"/>
      <point x="273" y="569" type="curve" smooth="yes"/>
      <point x="273" y="541"/>
      <point x="280" y="520"/>
      <point x="310" y="478" type="curve"/>
      <point x="347" y="506"/>
      <point x="364" y="536"/>
    </contour>
    <contour>
      <point x="374" y="148" type="curve"/>
      <point x="336" y="191"/>
      <point x="291" y="244"/>
      <point x="239" y="310" type="curve"/>
      <point x="215" y="287"/>
      <point x="206" y="261"/>
      <point x="206" y="231" type="curve" smooth="yes"/>
      <point x="206" y="170"/>
      <point x="246" y="129"/>
      <point x="309" y="129" type="curve" smooth="yes"/>
      <point x="330" y="129"/>
      <point x="352" y="135"/>
    </contour>
  </outline>
</glyph>
<glyph name="asterisk" format="1">
  <advance width="440"/>
  <unicode hex="002A"/>
  <outline>
    <contour>
      <point x="424" y="517" type="line"/>
      <point x="276" y="521" type="line"/>
      <point x="403" y="437" type="line"/>
      <point x="266" y="337" type="line"/>
      <point x="220" y="487" type="line"/>
      <point x="175" y="337" type="line"/>
      <point x="38" y="437" type="line"/>
      <point x="165" y="521" type="line"/>
      <point x="16" y="517" type="line"/>
      <point x="69" y="677" type="line"/>
      <point x="188" y="579" type="line"/>
      <point x="135" y="720" type="line"/>
      <point x="305" y="720" type="line"/>
      <point x="252" y="579" type="line"/>
      <point x="372" y="676" type="line"/>
    </contour>
  </outline>
</glyph>
<glyph name="comma" format="1">
  <advance width="268"/>
  <unicode hex="002C"/>
  <outline>
    <contour>
      <point x="260" y="208" type="line"/>
      <point x="132" y="-113" type="line"/>
      <point x="23" y="-113" type="line"/>
      <point x="47" y="208" type="line"/>
    </contour>
  </outline>
</glyph>
<glyph name="period" format="1">
  <advance width="268"/>
  <unicode hex="002E"/>
  <outline>
    <contour>
      <point x="244" y="103" type="curve" smooth="yes"/>
      <point x="244" y="40"/>
      <point x="197" y="-7"/>
      <point x="134" y="-7" type="curve" smooth="yes"/>
      <point x="71" y="-7"/>
      <point x="24" y="40"/>
      <point x="24" y="103" type="curve" smooth="yes"/>
      <point x="24" y="166"/>
      <point x="71" y="213"/>
      <point x="134" y="213" type="curve" smooth="yes"/>
      <point x="197" y="213"/>
      <point x="244" y="166"/>
    </contour>
  </outline>
</glyph>
<glyph name="slash" format="1">
  <advance width="476"/>
  <unicode hex="002F"/>
  <outline>
    <contour>
      <point x="469" y="735" type="line"/>
      <point x="168" y="-95" type="line"/>
      <point x="-23" y="-95" type="line"/>
      <point x="278" y="735" type="line"/>
    </contour>
  </outline>
</glyph>
<glyph name="zero" format="1">
  <advance width="636"/>
  <unicode hex="0030"/>
  <outline>
    <contour>
      <point x="608" y="313" type="line" smooth="yes"/>
      <point x="608" y="96"/>
      <point x="491" y="-12"/>
      <point x="318" y="-12" type="curve" smooth="yes"/>
      <point x="145" y="-12"/>
      <point x="28" y="96"/>
      <point x="28" y="313" type="curve" smooth="yes"/>
      <point x="28" y="407" type="line" smooth="yes"/>
      <point x="28" y="624"/>
      <point x="145" y="732"/>
      <point x="318" y="732" type="curve" smooth="yes"/>
      <point x="491" y="732"/>
      <point x="608" y="624"/>
      <point x="608" y="407" type="curve" smooth="yes"/>
    </contour>
    <contour>
      <point x="389" y="286" type="curve" smooth="yes"/>
      <point x="389" y="434" type="line" smooth="yes"/>
      <point x="389" y="527"/>
      <point x="369" y="570"/>
      <point x="318" y="570" type="curve" smooth="yes"/>
      <point x="267" y="570"/>
      <point x="247" y="527"/>
      <point x="247" y="434" type="curve" smooth="yes"/>
      <point x="247" y="286" type="line" smooth="yes"/>
      <point x="247" y="193"/>
      <point x="267" y="150"/>
      <point x="318" y="150" type="curve" smooth="yes"/>
      <point x="369" y="150"/>
      <point x="389" y="193"/>
    </contour>
  </outline>
</glyph>
<glyph name="five" format="1">
  <advance width="590"/>
  <unicode hex="0035"/>
  <outline>
    <contour>
      <point x="566" y="249" type="line" smooth="yes"/>
      <point x="566" y="66"/>
      <point x="450" y="-10"/>
      <point x="265" y="-10" type="curve" smooth="yes"/>
      <point x="163" y="-10"/>
      <point x="98" y="5"/>
      <point x="8" y="45" type="curve"/>
      <point x="63" y="196" type="line"/>
      <point x="141" y="163"/>
      <point x="195" y="150"/>
      <point x="253" y="150" type="curve" smooth="yes"/>
      <point x="317" y="150"/>
      <point x="352" y="182"/>
      <point x="352" y="248" type="curve" smooth="yes"/>
      <point x="352" y="254" type="line" smooth="yes"/>
      <point x="352" y="310"/>
      <point x="326" y="338"/>
      <point x="278" y="338" type="curve" smooth="yes"/>
      <point x="242" y="338"/>
      <point x="217" y="324"/>
      <point x="183" y="296" type="curve"/>
      <point x="49" y="296" type="line"/>
      <point x="76" y="720" type="line"/>
      <point x="527" y="720" type="line"/>
      <point x="527" y="554" type="line"/>
      <point x="206" y="554" type="line"/>
      <point x="198" y="431" type="line"/>
      <point x="204" y="431" type="line"/>
      <point x="243" y="465"/>
      <point x="282" y="485"/>
      <point x="356" y="485" type="curve" smooth="yes"/>
      <point x="483" y="485"/>
      <point x="566" y="412"/>
      <point x="566" y="267" type="curve" smooth="yes"/>
    </contour>
  </outline>
</glyph>
<glyph name="six" format="1">
  <advance width="625"/>
  <unicode hex="0036"/>
  <outline>
    <contour>
      <point x="602" y="247" type="curve" smooth="yes"/>
      <point x="602" y="83"/>
      <point x="499" y="-12"/>
      <point x="311" y="-12" type="curve" smooth="yes"/>
      <point x="125" y="-12"/>
      <point x="27" y="73"/>
      <point x="27" y="266" type="curve" smooth="yes"/>
      <point x="27" y="424"/>
      <point x="117" y="586"/>
      <point x="267" y="720" type="curve"/>
      <point x="519" y="720" type="line"/>
      <point x="361" y="614"/>
      <point x="261" y="508"/>
      <point x="229" y="428" type="curve"/>
      <point x="235" y="428" type="line"/>
      <point x="273" y="458"/>
      <point x="316" y="479"/>
      <point x="390" y="479" type="curve" smooth="yes"/>
      <point x="510" y="479"/>
      <point x="602" y="402"/>
    </contour>
    <contour>
      <point x="397" y="234" type="curve" smooth="yes"/>
      <point x="397" y="294"/>
      <point x="374" y="342"/>
      <point x="314" y="342" type="curve" smooth="yes"/>
      <point x="254" y="342"/>
      <point x="231" y="294"/>
      <point x="231" y="234" type="curve" smooth="yes"/>
      <point x="231" y="174"/>
      <point x="254" y="126"/>
      <point x="314" y="126" type="curve" smooth="yes"/>
      <point x="374" y="126"/>
      <point x="397" y="174"/>
    </contour>
  </outline>
</glyph>
<glyph name="seven" format="1">
  <advance width="576"/>
  <unicode hex="0037"/>
  <outline>
    <contour>
      <point x="561" y="603" type="line"/>
      <point x="447" y="447"/>
      <point x="347" y="225"/>
      <point x="301" y="0" type="curve"/>
      <point x="81" y="0" type="line"/>
      <point x="134" y="213"/>
      <point x="226" y="400"/>
      <point x="333" y="553" type="curve"/>
      <point x="18" y="553" type="line"/>
      <point x="18" y="720" type="line"/>
      <point x="561" y="720" type="line"/>
    </contour>
  </outline>
</glyph>
<glyph name="colon" format="1">
  <advance width="278"/>
  <unicode hex="003A"/>
  <outline>
    <contour>
      <point x="249" y="439" type="curve" smooth="yes"/>
      <point x="249" y="376"/>
      <point x="202" y="329"/>
      <point x="139" y="329" type="curve" smooth="yes"/>
      <point x="76" y="329"/>
      <point x="29" y="376"/>
      <point x="29" y="439" type="curve" smooth="yes"/>
      <point x="29" y="502"/>
      <point x="76" y="549"/>
      <point x="139" y="549" type="curve" smooth="yes"/>
      <point x="202" y="549"/>
      <point x="249" y="502"/>
    </contour>
    <contour>
      <point x="249" y="103" type="curve" smooth="yes"/>
      <point x="249" y="40"/>
      <point x="202" y="-7"/>
      <point x="139" y="-7" type="curve" smooth="yes"/>
      <point x="76" y="-7"/>
      <point x="29" y="40"/>
      <point x="29" y="103" type="curve" smooth="yes"/>
      <point x="29" y="166"/>
      <point x="76" y="213"/>
      <point x="139" y="213" type="curve" smooth="yes"/>
      <point x="202" y="213"/>
      <point x="249" y="166"/>
    </contour>
  </outline>
</glyph>
<glyph name="less" format="1">
  <advance width="600"/>
  <unicode hex="003C"/>
  <outline>
    <contour>
      <point x="560" y="59" type="line"/>
      <point x="36" y="275" type="line"/>
      <point x="36" y="435" type="line"/>
      <point x="560" y="651" type="line"/>
      <point x="560" y="474" type="line"/>
      <point x="229" y="355" type="line"/>
      <point x="560" y="236" type="line"/>
    </contour>
  </outline>
</glyph>
<glyph name="equal" format="1">
  <advance width="600"/>
  <unicode hex="003D"/>
  <outline>
    <contour>
      <point x="549" y="407" type="line"/>
      <point x="51" y="407" type="line"/>
      <point x="51" y="575" type="line"/>
      <point x="549" y="575" type="line"/>
    </contour>
    <contour>
      <point x="549" y="135" type="line"/>
      <point x="51" y="135" type="line"/>
      <point x="51" y="303" type="line"/>
      <point x="549" y="303" type="line"/>
    </contour>
  </outline>
</glyph>
<glyph name="A" format="1">
  <advance width="700"/>
  <unicode hex="0041"/>
  <outline>
    <contour>
      <point x="692" y="0" type="line"/>
      <point x="472" y="0" type="line"/>
      <point x="441" y="144" type="line"/>
      <point x="253" y="144" type="line"/>
      <point x="222" y="0" type="line"/>
      <point x="8" y="0" type="line"/>
      <point x="212" y="722" type="line"/>
      <point x="488" y="722" type="line"/>
    </contour>
    <contour>
      <point x="411" y="280" type="line"/>
      <point x="349" y="567" type="line"/>
      <point x="345" y="567" type="line"/>
      <point x="283" y="280" type="line"/>
    </contour>
  </outline>
</glyph>
<glyph name="B" format="1">
  <advance width="634"/>
  <unicode hex="0042"/>
  <outline>
    <contour>
      <point x="623" y="200" type="curve" smooth="yes"/>
      <point x="623" y="72"/>
      <point x="520" y="0"/>
      <point x="342" y="0" type="curve" smooth="yes"/>
      <point x="42" y="0" type="line"/>
      <point x="42" y="720" type="line"/>
      <point x="341" y="720" type="line" smooth="yes"/>
      <point x="503" y="720"/>
      <point x="603" y="658"/>
      <point x="603" y="536" type="curve" smooth="yes"/>
      <point x="603" y="450"/>
      <point x="542" y="405"/>
      <point x="482" y="381" type="curve"/>
      <point x="482" y="377" type="line"/>
      <point x="572" y="345"/>
      <point x="623" y="296"/>
    </contour>
    <contour>
      <point x="396" y="505" type="curve" smooth="yes"/>
      <point x="396" y="548"/>
      <point x="365" y="570"/>
      <point x="309" y="570" type="curve" smooth="yes"/>
      <point x="249" y="570" type="line"/>
      <point x="249" y="440" type="line"/>
      <point x="309" y="440" type="line" smooth="yes"/>
      <point x="365" y="440"/>
      <point x="396" y="462"/>
    </contour>
    <contour>
      <point x="416" y="228" type="curve" smooth="yes"/>
      <point x="416" y="290"/>
      <point x="368" y="306"/>
      <point x="299" y="306" type="curve" smooth="yes"/>
      <point x="249" y="306" type="line"/>
      <point x="249" y="150" type="line"/>
      <point x="299" y="150" type="line" smooth="yes"/>
      <point x="370" y="150"/>
      <point x="416" y="166"/>
    </contour>
  </outline>
</glyph>
<glyph name="C" format="1">
  <advance width="628"/>
  <unicode hex="0043"/>
  <outline>
    <contour>
      <point x="613" y="235" type="line"/>
      <point x="587" y="72"/>
      <point x="493" y="-12"/>
      <point x="327" y="-12" type="curve" smooth="yes"/>
      <point x="152" y="-12"/>
      <point x="30" y="100"/>
      <point x="30" y="325" type="curve" smooth="yes"/>
      <point x="30" y="395" type="line" smooth="yes"/>
      <point x="30" y="620"/>
      <point x="152" y="732"/>
      <point x="327" y="732" type="curve" smooth="yes"/>
      <point x="517" y="732"/>
      <point x="591" y="624"/>
      <point x="611" y="481" type="curve"/>
      <point x="404" y="434" type="line"/>
      <point x="394" y="532"/>
      <point x="376" y="570"/>
      <point x="327" y="570" type="curve" smooth="yes"/>
      <point x="272" y="570"/>
      <point x="254" y="515"/>
      <point x="254" y="424" type="curve" smooth="yes"/>
      <point x="254" y="296" type="line" smooth="yes"/>
      <point x="254" y="205"/>
      <point x="273" y="150"/>
      <point x="330" y="150" type="curve" smooth="yes"/>
      <point x="380" y="150"/>
      <point x="400" y="184"/>
      <point x="414" y="281" type="curve"/>
    </contour>
  </outline>
</glyph>
<glyph name="D" format="1">
  <advance width="650"/>
  <unicode hex="0044"/>
  <outline>
    <contour>
      <point x="623" y="333" type="line" smooth="yes"/>
      <point x="623" y="111"/>
      <point x="503" y="0"/>
      <point x="325" y="0" type="curve" smooth="yes"/>
      <point x="42" y="0" type="line"/>
      <point x="42" y="720" type="line"/>
      <point x="325" y="720" type="line" smooth="yes"/>
      <point x="503" y="720"/>
      <point x="623" y="609"/>
      <point x="623" y="387" type="curve" smooth="yes"/>
    </contour>
    <contour>
      <point x="399" y="312" type="curve" smooth="yes"/>
      <point x="399" y="408" type="line" smooth="yes"/>
      <point x="399" y="512"/>
      <point x="374" y="558"/>
      <point x="317" y="558" type="curve" smooth="yes"/>
      <point x="253" y="558" type="line"/>
      <point x="253" y="162" type="line"/>
      <point x="317" y="162" type="line" smooth="yes"/>
      <point x="374" y="162"/>
      <point x="399" y="208"/>
    </contour>
  </outline>
</glyph>
<glyph name="E" format="1">
  <advance width="567"/>
  <unicode hex="0045"/>
  <outline>
    <contour>
      <point x="544" y="0" type="line"/>
      <point x="42" y="0" type="line"/>
      <point x="42" y="720" type="line"/>
      <point x="532" y="720" type="line"/>
      <point x="532" y="554" type="line"/>
      <point x="254" y="554" type="line"/>
      <point x="254" y="447" type="line"/>
      <point x="444" y="447" type="line"/>
      <point x="444" y="291" type="line"/>
      <point x="254" y="291" type="line"/>
      <point x="254" y="166" type="line"/>
      <point x="544" y="166" type="line"/>
    </contour>
  </outline>
</glyph>
<glyph name="G" format="1">
  <advance width="670"/>
  <unicode hex="0047"/>
  <outline>
    <contour>
      <point x="634" y="-3" type="line"/>
      <point x="560" y="-3" type="line"/>
      <point x="530" y="98" type="line"/>
      <point x="525" y="98" type="line"/>
      <point x="482" y="26"/>
      <point x="411" y="-12"/>
      <point x="317" y="-12" type="curve" smooth="yes"/>
      <point x="139" y="-12"/>
      <point x="30" y="100"/>
      <point x="30" y="325" type="curve" smooth="yes"/>
      <point x="30" y="395" type="line" smooth="yes"/>
      <point x="30" y="620"/>
      <point x="152" y="732"/>
      <point x="332" y="732" type="curve" smooth="yes"/>
      <point x="524" y="732"/>
      <point x="598" y="627"/>
      <point x="621" y="481" type="curve"/>
      <point x="414" y="434" type="line"/>
      <point x="404" y="528"/>
      <point x="384" y="570"/>
      <point x="332" y="570" type="curve" smooth="yes"/>
      <point x="277" y="570"/>
      <point x="254" y="525"/>
      <point x="254" y="424" type="curve" smooth="yes"/>
      <point x="254" y="296" type="line" smooth="yes"/>
      <point x="254" y="190"/>
      <point x="282" y="150"/>
      <point x="337" y="150" type="curve" smooth="yes"/>
      <point x="390" y="150"/>
      <point x="417" y="186"/>
      <point x="420" y="282" type="curve"/>
      <point x="333" y="282" type="line"/>
      <point x="333" y="357" type="line"/>
      <point x="634" y="357" type="line"/>
    </contour>
  </outline>
</glyph>
<glyph name="H" format="1">
  <advance width="662"/>
  <unicode hex="0048"/>
  <outline>
    <contour>
      <point x="620" y="0" type="line"/>
      <point x="404" y="0" type="line"/>
      <point x="404" y="276" type="line"/>
      <point x="258" y="276" type="line"/>
      <point x="258" y="0" type="line"/>
      <point x="42" y="0" type="line"/>
      <point x="42" y="720" type="line"/>
      <point x="258" y="720" type="line"/>
      <point x="258" y="462" type="line"/>
      <point x="404" y="462" type="line"/>
      <point x="404" y="720" type="line"/>
      <point x="620" y="720" type="line"/>
    </contour>
  </outline>
</glyph>
<glyph name="I" format="1">
  <advance width="466"/>
  <unicode hex="0049"/>
  <outline>
    <contour>
      <point x="436" y="0" type="line"/>
      <point x="30" y="0" type="line"/>
      <point x="30" y="75" type="line"/>
      <point x="125" y="75" type="line"/>
      <point x="125" y="645" type="line"/>
      <point x="30" y="645" type="line"/>
      <point x="30" y="720" type="line"/>
      <point x="436" y="720" type="line"/>
      <point x="436" y="645" type="line"/>
      <point x="341" y="645" type="line"/>
      <point x="341" y="75" type="line"/>
      <point x="436" y="75" type="line"/>
    </contour>
  </outline>
</glyph>
<glyph name="J" format="1">
  <advance width="577"/>
  <unicode hex="004A"/>
  <outline>
    <contour>
      <point x="538" y="245" type="line" smooth="yes"/>
      <point x="538" y="67"/>
      <point x="443" y="-12"/>
      <point x="264" y="-12" type="curve" smooth="yes"/>
      <point x="93" y="-12"/>
      <point x="18" y="66"/>
      <point x="9" y="236" type="curve"/>
      <point x="210" y="267" type="line"/>
      <point x="213" y="189"/>
      <point x="228" y="157"/>
      <point x="268" y="157" type="curve" smooth="yes"/>
      <point x="305" y="157"/>
      <point x="322" y="179"/>
      <point x="322" y="237" type="curve" smooth="yes"/>
      <point x="322" y="720" type="line"/>
      <point x="538" y="720" type="line"/>
    </contour>
  </outline>
</glyph>
<glyph name="O" format="1">
  <advance width="664"/>
  <unicode hex="004F"/>
  <outline>
    <contour>
      <point x="634" y="325" type="line" smooth="yes"/>
      <point x="634" y="100"/>
      <point x="512" y="-12"/>
      <point x="332" y="-12" type="curve" smooth="yes"/>
      <point x="152" y="-12"/>
      <point x="30" y="100"/>
      <point x="30" y="325" type="curve" smooth="yes"/>
      <point x="30" y="395" type="line" smooth="yes"/>
      <point x="30" y="620"/>
      <point x="152" y="732"/>
      <point x="332" y="732" type="curve" smooth="yes"/>
      <point x="512" y="732"/>
      <point x="634" y="620"/>
      <point x="634" y="395" type="curve" smooth="yes"/>
    </contour>
    <contour>
      <point x="410" y="296" type="curve" smooth="yes"/>
      <point x="410" y="424" type="line" smooth="yes"/>
      <point x="410" y="525"/>
      <point x="387" y="570"/>
      <point x="332" y="570" type="curve" smooth="yes"/>
      <point x="277" y="570"/>
      <point x="254" y="525"/>
      <point x="254" y="424" type="curve" smooth="yes"/>
      <point x="254" y="296" type="line" smooth="yes"/>
      <point x="254" y="195"/>
      <point x="277" y="150"/>
      <point x="332" y="150" type="curve" smooth="yes"/>
      <point x="387" y="150"/>
      <point x="410" y="195"/>
    </contour>
  </outline>
</glyph>
<glyph name="P" format="1">
  <advance width="605"/>
  <unicode hex="0050"/>
  <outline>
    <contour>
      <point x="594" y="497" type="curve" smooth="yes"/>
      <point x="594" y="334"/>
      <point x="489" y="256"/>
      <point x="306" y="256" type="curve" smooth="yes"/>
      <point x="258" y="256" type="line"/>
      <point x="258" y="0" type="line"/>
      <point x="42" y="0" type="line"/>
      <point x="42" y="720" type="line"/>
      <point x="316" y="720" type="line" smooth="yes"/>
      <point x="484" y="720"/>
      <point x="594" y="650"/>
    </contour>
    <contour>
      <point x="379" y="494" type="curve" smooth="yes"/>
      <point x="379" y="545"/>
      <point x="348" y="570"/>
      <point x="293" y="570" type="curve" smooth="yes"/>
      <point x="249" y="570" type="line"/>
      <point x="249" y="410" type="line"/>
      <point x="293" y="410" type="line" smooth="yes"/>
      <point x="350" y="410"/>
      <point x="379" y="442"/>
    </contour>
  </outline>
</glyph>
<glyph name="S" format="1">
  <advance width="618"/>
  <unicode hex="0053"/>
  <outline>
    <contour>
      <point x="598" y="220" type="curve" smooth="yes"/>
      <point x="598" y="67"/>
      <point x="494" y="-9"/>
      <point x="311" y="-9" type="curve" smooth="yes"/>
      <point x="171" y="-9"/>
      <point x="86" y="29"/>
      <point x="9" y="108" type="curve"/>
      <point x="138" y="235" type="line"/>
      <point x="191" y="181"/>
      <point x="252" y="148"/>
      <point x="317" y="148" type="curve" smooth="yes"/>
      <point x="381" y="148"/>
      <point x="405" y="166"/>
      <point x="405" y="196" type="curve" smooth="yes"/>
      <point x="405" y="227"/>
      <point x="379" y="243"/>
      <point x="265" y="269" type="curve" smooth="yes"/>
      <point x="87" y="310"/>
      <point x="31" y="375"/>
      <point x="31" y="500" type="curve" smooth="yes"/>
      <point x="31" y="646"/>
      <point x="133" y="729"/>
      <point x="303" y="729" type="curve" smooth="yes"/>
      <point x="432" y="729"/>
      <point x="504" y="697"/>
      <point x="573" y="629" type="curve"/>
      <point x="444" y="502" type="line"/>
      <point x="395" y="549"/>
      <point x="349" y="572"/>
      <point x="298" y="572" type="curve" smooth="yes"/>
      <point x="247" y="572"/>
      <point x="224" y="554"/>
      <point x="224" y="525" type="curve" smooth="yes"/>
      <point x="224" y="498"/>
      <point x="243" y="478"/>
      <point x="360" y="451" type="curve" smooth="yes"/>
      <point x="547" y="407"/>
      <point x="598" y="337"/>
    </contour>
  </outline>
</glyph>
<glyph name="V" format="1">
  <advance width="690"/>
  <unicode hex="0056"/>
  <outline>
    <contour>
      <point x="682" y="720" type="line"/>
      <point x="463" y="-4" type="line"/>
      <point x="227" y="-4" type="line"/>
      <point x="8" y="720" type="line"/>
      <point x="232" y="720" type="line"/>
      <point x="346" y="231" type="line"/>
      <point x="350" y="231" type="line"/>
      <point x="464" y="720" type="line"/>
    </contour>
  </outline>
</glyph>
<glyph name="W" format="1">
  <advance width="1006"/>
  <unicode hex="0057"/>
  <outline>
    <contour>
      <point x="995" y="720" type="line"/>
      <point x="826" y="-4" type="line"/>
      <point x="600" y="-4" type="line"/>
      <point x="505" y="442" type="line"/>
      <point x="501" y="442" type="line"/>
      <point x="406" y="-4" type="line"/>
      <point x="180" y="-4" type="line"/>
      <point x="11" y="720" type="line"/>
      <point x="235" y="720" type="line"/>
      <point x="304" y="261" type="line"/>
      <point x="308" y="261" type="line"/>
      <point x="397" y="720" type="line"/>
      <point x="615" y="720" type="line"/>
      <point x="704" y="261" type="line"/>
      <point x="708" y="261" type="line"/>
      <point x="777" y="720" type="line"/>
    </contour>
  </outline>
</glyph>
<glyph name="X" format="1">
  <advance width="664"/>
  <unicode hex="0058"/>
  <outline>
    <contour>
      <point x="658" y="0" type="line"/>
      <point x="417" y="0" type="line"/>
      <point x="321" y="194" type="line"/>
      <point x="217" y="0" type="line"/>
      <point x="6" y="0" type="line"/>
      <point x="219" y="357" type="line"/>
      <point x="18" y="720" type="line"/>
      <point x="259" y="720" type="line"/>
      <point x="344" y="547" type="line"/>
      <point x="435" y="720" type="line"/>
      <point x="646" y="720" type="line"/>
      <point x="446" y="383" type="line"/>
    </contour>
  </outline>
</glyph>
<glyph name="grave" format="1">
  <advance width="500"/>
  <unicode hex="0060"/>
  <outline>
    <contour>
      <point x="375" y="592" type="line"/>
      <point x="244" y="592" type="line"/>
      <point x="86" y="743" type="line"/>
      <point x="305" y="743" type="line"/>
    </contour>
  </outline>
</glyph>
<glyph name="b" format="1">
  <advance width="571"/>
  <unicode hex="0062"/>
  <outline>
    <contour>
      <point x="546" y="255" type="line" smooth="yes"/>
      <point x="546" y="87"/>
      <point x="487" y="-7"/>
      <point x="388" y="-7" type="curve" smooth="yes"/>
      <point x="322" y="-7"/>
      <point x="285" y="27"/>
      <point x="247" y="87" type="curve"/>
      <point x="243" y="87" type="line"/>
      <point x="243" y="-8" type="line"/>
      <point x="39" y="16" type="line"/>
      <point x="39" y="730" type="line"/>
      <point x="243" y="754" type="line"/>
      <point x="243" y="455" type="line"/>
      <point x="247" y="455" type="line"/>
      <point x="289" y="513"/>
      <point x="328" y="549"/>
      <point x="388" y="549" type="curve" smooth="yes"/>
      <point x="492" y="549"/>
      <point x="546" y="455"/>
      <point x="546" y="287" type="curve" smooth="yes"/>
    </contour>
    <contour>
      <point x="346" y="270" type="curve" smooth="yes"/>
      <point x="346" y="384"/>
      <point x="326" y="421"/>
      <point x="294" y="421" type="curve" smooth="yes"/>
      <point x="262" y="421"/>
      <point x="243" y="384"/>
      <point x="243" y="270" type="curve" smooth="yes"/>
      <point x="243" y="158"/>
      <point x="262" y="121"/>
      <point x="294" y="121" type="curve" smooth="yes"/>
      <point x="326" y="121"/>
      <point x="346" y="158"/>
    </contour>
  </outline>
</glyph>
<glyph name="e" format="1">
  <advance width="523"/>
  <unicode hex="0065"/>
  <outline>
    <contour>
      <point x="509" y="43" type="line"/>
      <point x="424" y="5"/>
      <point x="369" y="-7"/>
      <point x="276" y="-7" type="curve" smooth="yes"/>
      <point x="113" y="-7"/>
      <point x="22" y="90"/>
      <point x="22" y="258" type="curve" smooth="yes"/>
      <point x="22" y="287" type="line" smooth="yes"/>
      <point x="22" y="455"/>
      <point x="116" y="552"/>
      <point x="261" y="552" type="curve" smooth="yes"/>
      <point x="412" y="552"/>
      <point x="500" y="455"/>
      <point x="500" y="287" type="curve" smooth="yes"/>
      <point x="500" y="222" type="line"/>
      <point x="211" y="222" type="line"/>
      <point x="218" y="142"/>
      <point x="255" y="129"/>
      <point x="310" y="129" type="curve" smooth="yes"/>
      <point x="353" y="129"/>
      <point x="402" y="139"/>
      <point x="466" y="168" type="curve"/>
    </contour>
    <contour>
      <point x="312" y="297" type="line"/>
      <point x="311" y="410"/>
      <point x="297" y="438"/>
      <point x="261" y="438" type="curve" smooth="yes"/>
      <point x="224" y="438"/>
      <point x="210" y="407"/>
      <point x="210" y="297" type="curve"/>
    </contour>
  </outline>
</glyph>
<glyph name="f" format="1">
  <advance width="428"/>
  <unicode hex="0066"/>
  <outline>
    <contour>
      <point x="444" y="613" type="line"/>
      <point x="418" y="621"/>
      <point x="398" y="624"/>
      <point x="365" y="624" type="curve" smooth="yes"/>
      <point x="319" y="624"/>
      <point x="300" y="608"/>
      <point x="300" y="566" type="curve" smooth="yes"/>
      <point x="300" y="540" type="line"/>
      <point x="425" y="540" type="line"/>
      <point x="425" y="406" type="line"/>
      <point x="300" y="406" type="line"/>
      <point x="300" y="0" type="line"/>
      <point x="99" y="0" type="line"/>
      <point x="99" y="406" type="line"/>
      <point x="9" y="406" type="line"/>
      <point x="9" y="540" type="line"/>
      <point x="99" y="540" type="line"/>
      <point x="99" y="561" type="line" smooth="yes"/>
      <point x="99" y="692"/>
      <point x="170" y="759"/>
      <point x="308" y="759" type="curve" smooth="yes"/>
      <point x="369" y="759"/>
      <point x="405" y="754"/>
      <point x="444" y="744" type="curve"/>
    </contour>
  </outline>
</glyph>
<glyph name="i" format="1">
  <advance width="286"/>
  <unicode hex="0069"/>
  <outline>
    <contour>
      <point x="250" y="593" type="line"/>
      <point x="36" y="593" type="line"/>
      <point x="36" y="730" type="line"/>
      <point x="250" y="730" type="line"/>
    </contour>
    <contour>
      <point x="245" y="0" type="line"/>
      <point x="41" y="0" type="line"/>
      <point x="41" y="542" type="line"/>
      <point x="245" y="542" type="line"/>
    </contour>
  </outline>
</glyph>
<glyph name="j" format="1">
  <advance width="286"/>
  <unicode hex="006A"/>
  <outline>
    <contour>
      <point x="250" y="593" type="line"/>
      <point x="36" y="593" type="line"/>
      <point x="36" y="730" type="line"/>
      <point x="250" y="730" type="line"/>
    </contour>
    <contour>
      <point x="245" y="0" type="line" smooth="yes"/>
      <point x="245" y="-144"/>
      <point x="174" y="-190"/>
      <point x="52" y="-190" type="curve" smooth="yes"/>
      <point x="-3" y="-190"/>
      <point x="-36" y="-184"/>
      <point x="-73" y="-173" type="curve"/>
      <point x="-73" y="-56" type="line"/>
      <point x="-51" y="-63"/>
      <point x="-35" y="-66"/>
      <point x="-16" y="-66" type="curve" smooth="yes"/>
      <point x="17" y="-66"/>
      <point x="41" y="-51"/>
      <point x="41" y="-9" type="curve" smooth="yes"/>
      <point x="41" y="542" type="line"/>
      <point x="245" y="542" type="line"/>
    </contour>
  </outline>
</glyph>
<glyph name="k" format="1">
  <advance width="598"/>
  <unicode hex="006B"/>
  <outline>
    <contour>
      <point x="605" y="0" type="line"/>
      <point x="388" y="0" type="line"/>
      <point x="250" y="272" type="line"/>
      <point x="250" y="275" type="line"/>
      <point x="382" y="542" type="line"/>
      <point x="594" y="542" type="line"/>
      <point x="451" y="277" type="line"/>
    </contour>
    <contour>
      <point x="243" y="0" type="line"/>
      <point x="39" y="0" type="line"/>
      <point x="39" y="730" type="line"/>
      <point x="243" y="754" type="line"/>
    </contour>
  </outline>
</glyph>
<glyph name="l" format="1">
  <advance width="286"/>
  <unicode hex="006C"/>
  <outline>
    <contour>
      <point x="245" y="0" type="line"/>
      <point x="41" y="0" type="line"/>
      <point x="41" y="730" type="line"/>
      <point x="245" y="754" type="line"/>
    </contour>
  </outline>
</glyph>
<glyph name="m" format="1">
  <advance width="861"/>
  <unicode hex="006D"/>
  <outline>
    <contour>
      <point x="829" y="0" type="line"/>
      <point x="625" y="0" type="line"/>
      <point x="625" y="354" type="line" smooth="yes"/>
      <point x="625" y="390"/>
      <point x="612" y="408"/>
      <point x="580" y="408" type="curve" smooth="yes"/>
      <point x="565" y="408"/>
      <point x="551" y="404"/>
      <point x="536" y="396" type="curve"/>
      <point x="536" y="0" type="line"/>
      <point x="332" y="0" type="line"/>
      <point x="332" y="354" type="line" smooth="yes"/>
      <point x="332" y="390"/>
      <point x="319" y="408"/>
      <point x="287" y="408" type="curve" smooth="yes"/>
      <point x="272" y="408"/>
      <point x="258" y="404"/>
      <point x="243" y="396" type="curve"/>
      <point x="243" y="0" type="line"/>
      <point x="39" y="0" type="line"/>
      <point x="39" y="526" type="line"/>
      <point x="243" y="550" type="line"/>
      <point x="243" y="442" type="line"/>
      <point x="247" y="442" type="line"/>
      <point x="309" y="519"/>
      <point x="351" y="549"/>
      <point x="415" y="549" type="curve" smooth="yes"/>
      <point x="480" y="549"/>
      <point x="522" y="515"/>
      <point x="533" y="442" type="curve"/>
      <point x="540" y="442" type="line"/>
      <point x="602" y="519"/>
      <point x="644" y="549"/>
      <point x="708" y="549" type="curve" smooth="yes"/>
      <point x="784" y="549"/>
      <point x="829" y="503"/>
      <point x="829" y="401" type="curve" smooth="yes"/>
    </contour>
  </outline>
</glyph>
<glyph name="n" format="1">
  <advance width="572"/>
  <unicode hex="006E"/>
  <outline>
    <contour>
      <point x="540" y="0" type="line"/>
      <point x="336" y="0" type="line"/>
      <point x="336" y="354" type="line" smooth="yes"/>
      <point x="336" y="390"/>
      <point x="323" y="408"/>
      <point x="291" y="408" type="curve" smooth="yes"/>
      <point x="275" y="408"/>
      <point x="260" y="404"/>
      <point x="243" y="395" type="curve"/>
      <point x="243" y="0" type="line"/>
      <point x="39" y="0" type="line"/>
      <point x="39" y="526" type="line"/>
      <point x="243" y="550" type="line"/>
      <point x="243" y="442" type="line"/>
      <point x="247" y="442" type="line"/>
      <point x="309" y="519"/>
      <point x="355" y="549"/>
      <point x="419" y="549" type="curve" smooth="yes"/>
      <point x="495" y="549"/>
      <point x="540" y="503"/>
      <point x="540" y="401" type="curve" smooth="yes"/>
    </contour>
  </outline>
</glyph>
<glyph name="o" format="1">
  <advance width="552"/>
  <unicode hex="006F"/>
  <outline>
    <contour>
      <point x="530" y="255" type="line" smooth="yes"/>
      <point x="530" y="87"/>
      <point x="437" y="-10"/>
      <point x="276" y="-10" type="curve" smooth="yes"/>
      <point x="115" y="-10"/>
      <point x="22" y="87"/>
      <point x="22" y="255" type="curve" smooth="yes"/>
      <point x="22" y="287" type="line" smooth="yes"/>
      <point x="22" y="455"/>
      <point x="115" y="552"/>
      <point x="276" y="552" type="curve" smooth="yes"/>
      <point x="437" y="552"/>
      <point x="530" y="455"/>
      <point x="530" y="287" type="curve" smooth="yes"/>
    </contour>
    <contour>
      <point x="327" y="254" type="curve" smooth="yes"/>
      <point x="327" y="288" type="line" smooth="yes"/>
      <point x="327" y="401"/>
      <point x="313" y="432"/>
      <point x="276" y="432" type="curve" smooth="yes"/>
      <point x="239" y="432"/>
      <point x="225" y="401"/>
      <point x="225" y="288" type="curve" smooth="yes"/>
      <point x="225" y="254" type="line" smooth="yes"/>
      <point x="225" y="141"/>
      <point x="239" y="110"/>
      <point x="276" y="110" type="curve" smooth="yes"/>
      <point x="313" y="110"/>
      <point x="327" y="141"/>
    </contour>
  </outline>
</glyph>
<glyph name="r" format="1">
  <advance width="448"/>
  <unicode hex="0072"/>
  <outline>
    <contour>
      <point x="438" y="346" type="line"/>
      <point x="349" y="338"/>
      <point x="290" y="318"/>
      <point x="243" y="290" type="curve"/>
      <point x="243" y="0" type="line"/>
      <point x="39" y="0" type="line"/>
      <point x="39" y="526" type="line"/>
      <point x="243" y="550" type="line"/>
      <point x="243" y="347" type="line"/>
      <point x="247" y="347" type="line"/>
      <point x="314" y="490"/>
      <point x="370" y="543"/>
      <point x="438" y="551" type="curve"/>
    </contour>
  </outline>
</glyph>
<glyph name="x" format="1">
  <advance width="574"/>
  <unicode hex="0078"/>
  <outline>
    <contour>
      <point x="568" y="0" type="line"/>
      <point x="350" y="0" type="line"/>
      <point x="279" y="134" type="line"/>
      <point x="204" y="0" type="line"/>
      <point x="6" y="0" type="line"/>
      <point x="181" y="267" type="line"/>
      <point x="11" y="542" type="line"/>
      <point x="229" y="542" type="line"/>
      <point x="295" y="415" type="line"/>
      <point x="365" y="542" type="line"/>
      <point x="563" y="542" type="line"/>
      <point x="393" y="283" type="line"/>
    </contour>
  </outline>
</glyph>
<glyph name="y" format="1">
  <advance width="580"/>
  <unicode hex="0079"/>
  <outline>
    <contour>
      <point x="575" y="542" type="line"/>
      <point x="391" y="-39" type="line" smooth="yes"/>
      <point x="353" y="-159"/>
      <point x="297" y="-191"/>
      <point x="176" y="-191" type="curve" smooth="yes"/>
      <point x="111" y="-191"/>
      <point x="74" y="-183"/>
      <point x="32" y="-167" type="curve"/>
      <point x="32" y="-42" type="line"/>
      <point x="67" y="-42" type="line"/>
      <point x="87" y="-74"/>
      <point x="104" y="-89"/>
      <point x="140" y="-89" type="curve" smooth="yes"/>
      <point x="171" y="-89"/>
      <point x="190" y="-79"/>
      <point x="199" y="-60" type="curve" smooth="yes"/>
      <point x="203" y="-52" type="line"/>
      <point x="5" y="542" type="line"/>
      <point x="214" y="542" type="line"/>
      <point x="295" y="193" type="line"/>
      <point x="376" y="542" type="line"/>
    </contour>
  </outline>
</glyph>
<glyph name="braceright" format="1">
  <advance width="480"/>
  <unicode hex="007D"/>
  <outline>
    <contour>
      <point x="471" y="283" type="line"/>
      <point x="396" y="283"/>
      <point x="340" y="259"/>
      <point x="340" y="188" type="curve" smooth="yes"/>
      <point x="340" y="143"/>
      <point x="360" y="89"/>
      <point x="360" y="48" type="curve" smooth="yes"/>
      <point x="360" y="-38"/>
      <point x="305" y="-80"/>
      <point x="201" y="-80" type="curve" smooth="yes"/>
      <point x="20" y="-80" type="line"/>
      <point x="20" y="-5" type="line"/>
      <point x="100" y="-5" type="line" smooth="yes"/>
      <point x="147" y="-5"/>
      <point x="171" y="16"/>
      <point x="171" y="58" type="curve" smooth="yes"/>
      <point x="171" y="89"/>
      <point x="151" y="145"/>
      <point x="151" y="193" type="curve" smooth="yes"/>
      <point x="151" y="270"/>
      <point x="200" y="297"/>
      <point x="256" y="316" type="curve"/>
      <point x="256" y="324" type="line"/>
      <point x="200" y="343"/>
      <point x="151" y="370"/>
      <point x="151" y="447" type="curve" smooth="yes"/>
      <point x="151" y="495"/>
      <point x="171" y="551"/>
      <point x="171" y="582" type="curve" smooth="yes"/>
      <point x="171" y="624"/>
      <point x="147" y="645"/>
      <point x="100" y="645" type="curve" smooth="yes"/>
      <point x="20" y="645" type="line"/>
      <point x="20" y="720" type="line"/>
      <point x="201" y="720" type="line" smooth="yes"/>
      <point x="305" y="720"/>
      <point x="360" y="678"/>
      <point x="360" y="592" type="curve" smooth="yes"/>
      <point x="360" y="551"/>
      <point x="340" y="497"/>
      <point x="340" y="452" type="curve" smooth="yes"/>
      <point x="340" y="381"/>
      <point x="396" y="357"/>
      <point x="471" y="357" type="curve"/>
    </contour>
  </outline>
</glyph>
<glyph name="sterling" format="1">
  <advance width="630"/>
  <unicode hex="00A3"/>
  <outline>
    <contour>
      <point x="621" y="192" type="line"/>
      <point x="586" y="55"/>
      <point x="537" y="-6"/>
      <point x="428" y="-6" type="curve" smooth="yes"/>
      <point x="362" y="-6"/>
      <point x="309" y="14"/>
      <point x="243" y="52" type="curve"/>
      <point x="194" y="17"/>
      <point x="125" y="-4"/>
      <point x="32" y="-6" type="curve"/>
      <point x="32" y="134" type="line"/>
      <point x="116" y="143"/>
      <point x="148" y="173"/>
      <point x="148" y="244" type="curve" smooth="yes"/>
      <point x="148" y="267"/>
      <point x="144" y="289"/>
      <point x="139" y="310" type="curve"/>
      <point x="28" y="310" type="line"/>
      <point x="28" y="405" type="line"/>
      <point x="107" y="405" type="line"/>
      <point x="95" y="441"/>
      <point x="85" y="479"/>
      <point x="85" y="520" type="curve" smooth="yes"/>
      <point x="85" y="648"/>
      <point x="172" y="732"/>
      <point x="336" y="732" type="curve" smooth="yes"/>
      <point x="504" y="732"/>
      <point x="562" y="660"/>
      <point x="601" y="557" type="curve"/>
      <point x="423" y="482" type="line"/>
      <point x="399" y="549"/>
      <point x="376" y="581"/>
      <point x="333" y="581" type="curve" smooth="yes"/>
      <point x="293" y="581"/>
      <point x="273" y="559"/>
      <point x="273" y="518" type="curve" smooth="yes"/>
      <point x="273" y="483"/>
      <point x="286" y="447"/>
      <point x="300" y="405" type="curve"/>
      <point x="478" y="405" type="line"/>
      <point x="478" y="310" type="line"/>
      <point x="325" y="310" type="line"/>
      <point x="329" y="289"/>
      <point x="331" y="266"/>
      <point x="331" y="241" type="curve" smooth="yes"/>
      <point x="331" y="216"/>
      <point x="328" y="193"/>
      <point x="322" y="171" type="curve"/>
      <point x="348" y="163"/>
      <point x="371" y="158"/>
      <point x="392" y="158" type="curve" smooth="yes"/>
      <point x="450" y="158"/>
      <point x="468" y="178"/>
      <point x="496" y="235" type="curve"/>
    </contour>
  </outline>
</glyph>
<glyph name="section" format="1">
  <advance width="618"/>
  <unicode hex="00A7"/>
  <outline>
    <contour>
      <point x="600" y="376" type="curve" smooth="yes"/>
      <point x="600" y="310"/>
      <point x="542" y="271"/>
      <point x="447" y="259" type="curve"/>
      <point x="447" y="253" type="line"/>
      <point x="505" y="230"/>
      <point x="544" y="190"/>
      <point x="544" y="127" type="curve" smooth="yes"/>
      <point x="544" y="46"/>
      <point x="478" y="-12"/>
      <point x="327" y="-12" type="curve" smooth="yes"/>
      <point x="218" y="-12"/>
      <point x="142" y="8"/>
      <point x="59" y="54" type="curve"/>
      <point x="127" y="167" type="line"/>
      <point x="201" y="128"/>
      <point x="273" y="111"/>
      <point x="335" y="111" type="curve" smooth="yes"/>
      <point x="370" y="111"/>
      <point x="384" y="119"/>
      <point x="384" y="135" type="curve" smooth="yes"/>
      <point x="384" y="155"/>
      <point x="371" y="165"/>
      <point x="247" y="194" type="curve" smooth="yes"/>
      <point x="67" y="237"/>
      <point x="18" y="279"/>
      <point x="18" y="344" type="curve" smooth="yes"/>
      <point x="18" y="410"/>
      <point x="76" y="449"/>
      <point x="171" y="461" type="curve"/>
      <point x="171" y="467" type="line"/>
      <point x="113" y="490"/>
      <point x="74" y="530"/>
      <point x="74" y="593" type="curve" smooth="yes"/>
      <point x="74" y="674"/>
      <point x="140" y="732"/>
      <point x="291" y="732" type="curve" smooth="yes"/>
      <point x="400" y="732"/>
      <point x="476" y="712"/>
      <point x="559" y="666" type="curve"/>
      <point x="491" y="553" type="line"/>
      <point x="417" y="592"/>
      <point x="345" y="609"/>
      <point x="283" y="609" type="curve" smooth="yes"/>
      <point x="248" y="609"/>
      <point x="234" y="601"/>
      <point x="234" y="585" type="curve" smooth="yes"/>
      <point x="234" y="565"/>
      <point x="247" y="555"/>
      <point x="371" y="526" type="curve" smooth="yes"/>
      <point x="551" y="483"/>
      <point x="600" y="441"/>
    </contour>
    <contour>
      <point x="459" y="343" type="curve" smooth="yes"/>
      <point x="459" y="372"/>
      <point x="426" y="388"/>
      <point x="351" y="408" type="curve" smooth="yes"/>
      <point x="317" y="417"/>
      <point x="281" y="423"/>
      <point x="248" y="423" type="curve" smooth="yes"/>
      <point x="192" y="423"/>
      <point x="159" y="408"/>
      <point x="159" y="377" type="curve" smooth="yes"/>
      <point x="159" y="348"/>
      <point x="192" y="332"/>
      <point x="267" y="312" type="curve" smooth="yes"/>
      <point x="301" y="303"/>
      <point x="337" y="297"/>
      <point x="370" y="297" type="curve" smooth="yes"/>
      <point x="426" y="297"/>
      <point x="459" y="312"/>
    </contour>
  </outline>
</glyph>
<glyph name="dieresis" format="1">
  <advance width="500"/>
  <unicode hex="00A8"/>
  <outline>
    <contour>
      <point x="432" y="592" type="line"/>
      <point x="283" y="592" type="line"/>
      <point x="283" y="743" type="line"/>
      <point x="432" y="743" type="line"/>
    </contour>
    <contour>
      <point x="217" y="592" type="line"/>
      <point x="68" y="592" type="line"/>
      <point x="68" y="743" type="line"/>
      <point x="217" y="743" type="line"/>
    </contour>
  </outline>
</glyph>
<glyph name="degree" format="1">
  <advance width="400"/>
  <unicode hex="00B0"/>
  <outline>
    <contour>
      <point x="365" y="561" type="curve" smooth="yes"/>
      <point x="365" y="466"/>
      <point x="295" y="398"/>
      <point x="200" y="398" type="curve" smooth="yes"/>
      <point x="105" y="398"/>
      <point x="35" y="466"/>
      <point x="35" y="561" type="curve" smooth="yes"/>
      <point x="35" y="656"/>
      <point x="105" y="724"/>
      <point x="200" y="724" type="curve" smooth="yes"/>
      <point x="295" y="724"/>
      <point x="365" y="656"/>
    </contour>
    <contour>
      <point x="274" y="561" type="curve" smooth="yes"/>
      <point x="274" y="608"/>
      <point x="246" y="644"/>
      <point x="200" y="644" type="curve" smooth="yes"/>
      <point x="154" y="644"/>
      <point x="126" y="608"/>
      <point x="126" y="561" type="curve" smooth="yes"/>
      <point x="126" y="514"/>
      <point x="154" y="478"/>
      <point x="200" y="478" type="curve" smooth="yes"/>
      <point x="246" y="478"/>
      <point x="274" y="514"/>
    </contour>
  </outline>
</glyph>
<glyph name="paragraph" format="1">
  <advance width="570"/>
  <unicode hex="00B6"/>
  <outline>
    <contour>
      <point x="516" y="0" type="line"/>
      <point x="440" y="0" type="line"/>
      <point x="440" y="649" type="line"/>
      <point x="361" y="649" type="line"/>
      <point x="361" y="0" type="line"/>
      <point x="285" y="0" type="line"/>
      <point x="285" y="277" type="line"/>
      <point x="113" y="280"/>
      <point x="18" y="363"/>
      <point x="18" y="497" type="curve" smooth="yes"/>
      <point x="18" y="641"/>
      <point x="122" y="720"/>
      <point x="289" y="720" type="curve" smooth="yes"/>
      <point x="516" y="720" type="line"/>
    </contour>
  </outline>
</glyph>
<glyph name="periodcentered" format="1">
  <advance width="268"/>
  <unicode hex="00B7"/>
  <outline>
    <contour>
      <point x="244" y="278" type="curve" smooth="yes"/>
      <point x="244" y="215"/>
      <point x="197" y="168"/>
      <point x="134" y="168" type="curve" smooth="yes"/>
      <point x="71" y="168"/>
      <point x="24" y="215"/>
      <point x="24" y="278" type="curve" smooth="yes"/>
      <point x="24" y="341"/>
      <point x="71" y="388"/>
      <point x="134" y="388" type="curve" smooth="yes"/>
      <point x="197" y="388"/>
      <point x="244" y="341"/>
    </contour>
  </outline>
</glyph>
<glyph name="cedilla" format="1">
  <advance width="500"/>
  <unicode hex="00B8"/>
  <outline>
    <contour>
      <point x="416" y="-95" type="curve" smooth="yes"/>
      <point x="416" y="-163"/>
      <point x="340" y="-195"/>
      <point x="122" y="-191" type="curve"/>
      <point x="122" y="-156" type="line"/>
      <point x="263" y="-156"/>
      <point x="305" y="-142"/>
      <point x="305" y="-120" type="curve" smooth="yes"/>
      <point x="305" y="-108"/>
      <point x="295" y="-102"/>
      <point x="272" y="-102" type="curve" smooth="yes"/>
      <point x="255" y="-102"/>
      <point x="236" y="-106"/>
      <point x="217" y="-112" type="curve"/>
      <point x="178" y="-88" type="line"/>
      <point x="252" y="0" type="line"/>
      <point x="307" y="0" type="line"/>
      <point x="272" y="-41" type="line"/>
      <point x="282" y="-40"/>
      <point x="303" y="-38"/>
      <point x="322" y="-38" type="curve" smooth="yes"/>
      <point x="377" y="-38"/>
      <point x="416" y="-56"/>
    </contour>
  </outline>
</glyph>
<glyph name="questiondown" format="1">
  <advance width="532"/>
  <unicode hex="00BF"/>
  <outline>
    <contour>
      <point x="401" y="622" type="curve" smooth="yes"/>
      <point x="401" y="562"/>
      <point x="356" y="517"/>
      <point x="296" y="517" type="curve" smooth="yes"/>
      <point x="236" y="517"/>
      <point x="191" y="562"/>
      <point x="191" y="622" type="curve" smooth="yes"/>
      <point x="191" y="682"/>
      <point x="236" y="727"/>
      <point x="296" y="727" type="curve" smooth="yes"/>
      <point x="356" y="727"/>
      <point x="401" y="682"/>
    </contour>
    <contour>
      <point x="526" y="182" type="line"/>
      <point x="476" y="56"/>
      <point x="407" y="-12"/>
      <point x="263" y="-12" type="curve" smooth="yes"/>
      <point x="105" y="-12"/>
      <point x="20" y="66"/>
      <point x="20" y="188" type="curve" smooth="yes"/>
      <point x="20" y="284"/>
      <point x="59" y="332"/>
      <point x="141" y="378" type="curve" smooth="yes"/>
      <point x="198" y="411"/>
      <point x="224" y="434"/>
      <point x="232" y="467" type="curve"/>
      <point x="358" y="467" type="line"/>
      <point x="371" y="378"/>
      <point x="347" y="341"/>
      <point x="279" y="290" type="curve" smooth="yes"/>
      <point x="239" y="260"/>
      <point x="223" y="232"/>
      <point x="223" y="197" type="curve" smooth="yes"/>
      <point x="223" y="164"/>
      <point x="239" y="143"/>
      <point x="272" y="143" type="curve" smooth="yes"/>
      <point x="305" y="143"/>
      <point x="333" y="165"/>
      <point x="372" y="253" type="curve"/>
    </contour>
  </outline>
</glyph>
<glyph name="AE" format="1">
  <advance width="986"/>
  <unicode hex="00C6"/>
  <outline>
    <contour>
      <point x="963" y="0" type="line"/>
      <point x="466" y="0" type="line"/>
      <point x="466" y="144" type="line"/>
      <point x="269" y="144" type="line"/>
      <point x="210" y="0" type="line"/>
      <point x="-4" y="0" type="line"/>
      <point x="323" y="720" type="line"/>
      <point x="951" y="720" type="line"/>
      <point x="951" y="554" type="line"/>
      <point x="673" y="554" type="line"/>
      <point x="673" y="447" type="line"/>
      <point x="863" y="447" type="line"/>
      <point x="863" y="291" type="line"/>
      <point x="673" y="291" type="line"/>
      <point x="673" y="166" type="line"/>
      <point x="963" y="166" type="line"/>
    </contour>
    <contour>
      <point x="466" y="280" type="line"/>
      <point x="466" y="565" type="line"/>
      <point x="443" y="565" type="line"/>
      <point x="325" y="280" type="line"/>
    </contour>
  </outline>
</glyph>
<glyph name="Eth" format="1">
  <advance width="690"/>
  <unicode hex="00D0"/>
  <outline>
    <contour>
      <point x="663" y="333" type="line" smooth="yes"/>
      <point x="663" y="111"/>
      <point x="543" y="0"/>
      <point x="365" y="0" type="curve" smooth="yes"/>
      <point x="82" y="0" type="line"/>
      <point x="82" y="286" type="line"/>
      <point x="15" y="286" type="line"/>
      <point x="15" y="452" type="line"/>
      <point x="82" y="452" type="line"/>
      <point x="82" y="720" type="line"/>
      <point x="365" y="720" type="line" smooth="yes"/>
      <point x="543" y="720"/>
      <point x="663" y="609"/>
      <point x="663" y="387" type="curve" smooth="yes"/>
    </contour>
    <contour>
      <point x="439" y="312" type="curve" smooth="yes"/>
      <point x="439" y="408" type="line" smooth="yes"/>
      <point x="439" y="512"/>
      <point x="414" y="558"/>
      <point x="357" y="558" type="curve" smooth="yes"/>
      <point x="283" y="558" type="line"/>
      <point x="283" y="452" type="line"/>
      <point x="361" y="452" type="line"/>
      <point x="361" y="286" type="line"/>
      <point x="283" y="286" type="line"/>
      <point x="283" y="162" type="line"/>
      <point x="357" y="162" type="line" smooth="yes"/>
      <point x="414" y="162"/>
      <point x="439" y="208"/>
    </contour>
  </outline>
</glyph>
<glyph name="germandbls" format="1">
  <advance width="633"/>
  <unicode hex="00DF"/>
  <outline>
    <contour>
      <point x="613" y="201" type="curve" smooth="yes"/>
      <point x="613" y="59"/>
      <point x="534" y="-5"/>
      <point x="391" y="-5" type="curve" smooth="yes"/>
      <point x="341" y="-5"/>
      <point x="315" y="-2"/>
      <point x="288" y="4" type="curve"/>
      <point x="300" y="133" type="line"/>
      <point x="316" y="130"/>
      <point x="330" y="128"/>
      <point x="347" y="128" type="curve" smooth="yes"/>
      <point x="386" y="128"/>
      <point x="413" y="156"/>
      <point x="413" y="205" type="curve" smooth="yes"/>
      <point x="413" y="276"/>
      <point x="370" y="323"/>
      <point x="293" y="348" type="curve"/>
      <point x="293" y="469" type="line"/>
      <point x="347" y="480"/>
      <point x="368" y="511"/>
      <point x="368" y="559" type="curve" smooth="yes"/>
      <point x="368" y="600"/>
      <point x="348" y="628"/>
      <point x="304" y="628" type="curve" smooth="yes"/>
      <point x="257" y="628"/>
      <point x="243" y="592"/>
      <point x="243" y="535" type="curve" smooth="yes"/>
      <point x="243" y="0" type="line"/>
      <point x="39" y="0" type="line"/>
      <point x="39" y="512" type="line" smooth="yes"/>
      <point x="39" y="683"/>
      <point x="146" y="759"/>
      <point x="310" y="759" type="curve" smooth="yes"/>
      <point x="479" y="759"/>
      <point x="564" y="684"/>
      <point x="564" y="573" type="curve" smooth="yes"/>
      <point x="564" y="478"/>
      <point x="519" y="441"/>
      <point x="463" y="417" type="curve"/>
      <point x="463" y="411" type="line"/>
      <point x="546" y="377"/>
      <point x="613" y="316"/>
    </contour>
  </outline>
</glyph>
<glyph name="ae" format="1">
  <advance width="808"/>
  <unicode hex="00E6"/>
  <outline>
    <contour>
      <point x="794" y="43" type="line"/>
      <point x="709" y="5"/>
      <point x="654" y="-7"/>
      <point x="561" y="-7" type="curve" smooth="yes"/>
      <point x="474" y="-7"/>
      <point x="408" y="23"/>
      <point x="365" y="73" type="curve"/>
      <point x="311" y="28"/>
      <point x="256" y="-5"/>
      <point x="179" y="-5" type="curve" smooth="yes"/>
      <point x="78" y="-5"/>
      <point x="16" y="46"/>
      <point x="16" y="139" type="curve" smooth="yes"/>
      <point x="16" y="249"/>
      <point x="103" y="308"/>
      <point x="307" y="321" type="curve"/>
      <point x="307" y="362" type="line" smooth="yes"/>
      <point x="307" y="393"/>
      <point x="287" y="413"/>
      <point x="250" y="413" type="curve" smooth="yes"/>
      <point x="214" y="413"/>
      <point x="167" y="401"/>
      <point x="93" y="363" type="curve"/>
      <point x="41" y="480" type="line"/>
      <point x="126" y="524"/>
      <point x="191" y="548"/>
      <point x="270" y="548" type="curve" smooth="yes"/>
      <point x="349" y="548"/>
      <point x="389" y="527"/>
      <point x="409" y="486" type="curve"/>
      <point x="416" y="486" type="line"/>
      <point x="445" y="529"/>
      <point x="490" y="552"/>
      <point x="556" y="552" type="curve" smooth="yes"/>
      <point x="703" y="552"/>
      <point x="785" y="455"/>
      <point x="785" y="287" type="curve" smooth="yes"/>
      <point x="785" y="222" type="line"/>
      <point x="496" y="222" type="line"/>
      <point x="503" y="142"/>
      <point x="540" y="129"/>
      <point x="595" y="129" type="curve" smooth="yes"/>
      <point x="638" y="129"/>
      <point x="687" y="139"/>
      <point x="751" y="168" type="curve"/>
    </contour>
    <contour>
      <point x="597" y="297" type="line"/>
      <point x="596" y="410"/>
      <point x="582" y="438"/>
      <point x="546" y="438" type="curve" smooth="yes"/>
      <point x="509" y="438"/>
      <point x="495" y="407"/>
      <point x="495" y="297" type="curve"/>
    </contour>
    <contour>
      <point x="331" y="126" type="curve"/>
      <point x="315" y="161"/>
      <point x="307" y="201"/>
      <point x="307" y="246" type="curve" smooth="yes"/>
      <point x="307" y="252" type="line"/>
      <point x="222" y="239"/>
      <point x="199" y="211"/>
      <point x="199" y="169" type="curve" smooth="yes"/>
      <point x="199" y="129"/>
      <point x="220" y="110"/>
      <point x="263" y="110" type="curve" smooth="yes"/>
      <point x="283" y="110"/>
      <point x="306" y="116"/>
    </contour>
  </outline>
</glyph>
<glyph name="eth" format="1">
  <advance width="554"/>
  <unicode hex="00F0"/>
  <outline>
    <contour>
      <point x="530" y="255" type="line" smooth="yes"/>
      <point x="530" y="87"/>
      <point x="437" y="-10"/>
      <point x="276" y="-10" type="curve" smooth="yes"/>
      <point x="115" y="-10"/>
      <point x="22" y="87"/>
      <point x="22" y="255" type="curve" smooth="yes"/>
      <point x="22" y="287" type="line" smooth="yes"/>
      <point x="22" y="455"/>
      <point x="95" y="542"/>
      <point x="216" y="542" type="curve" smooth="yes"/>
      <point x="280" y="542"/>
      <point x="313" y="517"/>
      <point x="349" y="470" type="curve"/>
      <point x="353" y="470" type="line"/>
      <point x="343" y="517"/>
      <point x="310" y="570"/>
      <point x="263" y="619" type="curve"/>
      <point x="137" y="575" type="line"/>
      <point x="137" y="638" type="line"/>
      <point x="213" y="665" type="line"/>
      <point x="190" y="683"/>
      <point x="165" y="700"/>
      <point x="138" y="715" type="curve"/>
      <point x="300" y="762" type="line"/>
      <point x="319" y="747"/>
      <point x="338" y="731"/>
      <point x="355" y="714" type="curve"/>
      <point x="492" y="762" type="line"/>
      <point x="492" y="699" type="line"/>
      <point x="401" y="667" type="line"/>
      <point x="481" y="574"/>
      <point x="530" y="460"/>
      <point x="530" y="320" type="curve" smooth="yes"/>
    </contour>
    <contour>
      <point x="327" y="254" type="curve" smooth="yes"/>
      <point x="327" y="288" type="line" smooth="yes"/>
      <point x="327" y="401"/>
      <point x="313" y="432"/>
      <point x="276" y="432" type="curve" smooth="yes"/>
      <point x="239" y="432"/>
      <point x="225" y="401"/>
      <point x="225" y="288" type="curve" smooth="yes"/>
      <point x="225" y="254" type="line" smooth="yes"/>
      <point x="225" y="141"/>
      <point x="239" y="110"/>
      <point x="276" y="110" type="curve" smooth="yes"/>
      <point x="313" y="110"/>
      <point x="327" y="141"/>
    </contour>
  </outline>
</glyph>
<glyph name="dotlessi" format="1">
  <advance width="286"/>
  <unicode hex="0131"/>
  <outline>
    <contour>
      <point x="245" y="0" type="line"/>
      <point x="41" y="0" type="line"/>
      <point x="41" y="542" type="line"/>
      <point x="245" y="542" type="line"/>
    </contour>
  </outline>
</glyph>
<glyph name="Lslash" format="1">
  <advance width="580"/>
  <unicode hex="0141"/>
  <outline>
    <contour>
      <point x="562" y="0" type="line"/>
      <point x="82" y="0" type="line"/>
      <point x="82" y="264" type="line"/>
      <point x="15" y="236" type="line"/>
      <point x="15" y="402" type="line"/>
      <point x="82" y="430" type="line"/>
      <point x="82" y="720" type="line"/>
      <point x="292" y="720" type="line"/>
      <point x="292" y="508" type="line"/>
      <point x="411" y="557" type="line"/>
      <point x="411" y="391" type="line"/>
      <point x="292" y="342" type="line"/>
      <point x="292" y="180" type="line"/>
      <point x="562" y="180" type="line"/>
    </contour>
  </outline>
</glyph>
<glyph name="oe" format="1">
  <advance width="834"/>
  <unicode hex="0153"/>
  <outline>
    <contour>
      <point x="820" y="43" type="line"/>
      <point x="735" y="5"/>
      <point x="687" y="-7"/>
      <point x="607" y="-7" type="curve" smooth="yes"/>
      <point x="508" y="-7"/>
      <point x="468" y="18"/>
      <point x="435" y="65" type="curve"/>
      <point x="427" y="65" type="line"/>
      <point x="404" y="27"/>
      <point x="353" y="-10"/>
      <point x="266" y="-10" type="curve" smooth="yes"/>
      <point x="115" y="-10"/>
      <point x="22" y="87"/>
      <point x="22" y="255" type="curve" smooth="yes"/>
      <point x="22" y="287" type="line" smooth="yes"/>
      <point x="22" y="455"/>
      <point x="116" y="552"/>
      <point x="261" y="552" type="curve" smooth="yes"/>
      <point x="341" y="552"/>
      <point x="398" y="526"/>
      <point x="427" y="477" type="curve"/>
      <point x="435" y="477" type="line"/>
      <point x="463" y="526"/>
      <point x="516" y="552"/>
      <point x="587" y="552" type="curve" smooth="yes"/>
      <point x="723" y="552"/>
      <point x="811" y="455"/>
      <point x="811" y="287" type="curve" smooth="yes"/>
      <point x="811" y="222" type="line"/>
      <point x="522" y="222" type="line"/>
      <point x="529" y="142"/>
      <point x="566" y="129"/>
      <point x="621" y="129" type="curve" smooth="yes"/>
      <point x="664" y="129"/>
      <point x="713" y="139"/>
      <point x="777" y="168" type="curve"/>
    </contour>
    <contour>
      <point x="623" y="297" type="line"/>
      <point x="622" y="410"/>
      <point x="608" y="438"/>
      <point x="572" y="438" type="curve" smooth="yes"/>
      <point x="535" y="438"/>
      <point x="521" y="407"/>
      <point x="521" y="297" type="curve"/>
    </contour>
    <contour>
      <point x="327" y="254" type="curve" smooth="yes"/>
      <point x="327" y="288" type="line" smooth="yes"/>
      <point x="327" y="401"/>
      <point x="313" y="432"/>
      <point x="276" y="432" type="curve" smooth="yes"/>
      <point x="239" y="432"/>
      <point x="225" y="401"/>
      <point x="225" y="288" type="curve" smooth="yes"/>
      <point x="225" y="254" type="line" smooth="yes"/>
      <point x="225" y="141"/>
      <point x="239" y="110"/>
      <point x="276" y="110" type="curve" smooth="yes"/>
      <point x="313" y="110"/>
      <point x="327" y="141"/>
    </contour>
  </outline>
</glyph>
<glyph name="florin" format="1">
  <advance width="555"/>
  <unicode hex="0192"/>
  <outline>
    <contour>
      <point x="534" y="711" type="curve"/>
      <point x="510" y="580" type="line"/>
      <point x="483" y="585"/>
      <point x="461" y="588"/>
      <point x="428" y="588" type="curve" smooth="yes"/>
      <point x="385" y="588"/>
      <point x="365" y="568"/>
      <point x="357" y="526" type="curve" smooth="yes"/>
      <point x="348" y="477" type="line"/>
      <point x="473" y="477" type="line"/>
      <point x="450" y="343" type="line"/>
      <point x="325" y="343" type="line"/>
      <point x="261" y="-13" type="line" smooth="yes"/>
      <point x="238" y="-141"/>
      <point x="164" y="-190"/>
      <point x="45" y="-190" type="curve" smooth="yes"/>
      <point x="-10" y="-190"/>
      <point x="-50" y="-186"/>
      <point x="-83" y="-180" type="curve"/>
      <point x="-60" y="-54" type="line"/>
      <point x="-44" y="-56"/>
      <point x="-28" y="-57"/>
      <point x="-7" y="-57" type="curve" smooth="yes"/>
      <point x="36" y="-57"/>
      <point x="56" y="-37"/>
      <point x="64" y="5" type="curve" smooth="yes"/>
      <point x="125" y="343" type="line"/>
      <point x="34" y="343" type="line"/>
      <point x="57" y="477" type="line"/>
      <point x="148" y="477" type="line"/>
      <point x="161" y="549" type="line" smooth="yes"/>
      <point x="184" y="677"/>
      <point x="258" y="726"/>
      <point x="377" y="726" type="curve" smooth="yes"/>
      <point x="448" y="726"/>
      <point x="495" y="719"/>
    </contour>
  </outline>
</glyph>
<glyph name="circumflex" format="1">
  <advance width="500"/>
  <unicode hex="02C6"/>
  <outline>
    <contour>
      <point x="429" y="592" type="line"/>
      <point x="334" y="592" type="line"/>
      <point x="249" y="661" type="line"/>
      <point x="164" y="592" type="line"/>
      <point x="71" y="592" type="line"/>
      <point x="178" y="763" type="line"/>
      <point x="322" y="763" type="line"/>
    </contour>
  </outline>
</glyph>
<glyph name="tilde" format="1">
  <advance width="500"/>
  <unicode hex="02DC"/>
  <outline>
    <contour>
      <point x="433" y="765" type="line"/>
      <point x="441" y="644"/>
      <point x="408" y="590"/>
      <point x="331" y="590" type="curve" smooth="yes"/>
      <point x="261" y="590"/>
      <point x="222" y="640"/>
      <point x="188" y="640" type="curve" smooth="yes"/>
      <point x="167" y="640"/>
      <point x="158" y="627"/>
      <point x="157" y="592" type="curve"/>
      <point x="67" y="592" type="line"/>
      <point x="59" y="713"/>
      <point x="92" y="767"/>
      <point x="169" y="767" type="curve" smooth="yes"/>
      <point x="239" y="767"/>
      <point x="278" y="717"/>
      <point x="312" y="717" type="curve" smooth="yes"/>
      <point x="333" y="717"/>
      <point x="342" y="730"/>
      <point x="343" y="765" type="curve"/>
    </contour>
  </outline>
</glyph>
<glyph name="endash" format="1">
  <advance width="500"/>
  <unicode hex="2013"/>
  <outline>
    <contour>
      <point x="467" y="210" type="line"/>
      <point x="33" y="210" type="line"/>
      <point x="33" y="376" type="line"/>
      <point x="467" y="376" type="line"/>
    </contour>
  </outline>
</glyph>
<glyph name="quoteright" format="1">
  <advance width="268"/>
  <unicode hex="2019"/>
  <unicode hex="02BC"/>
  <outline>
    <contour>
      <point x="260" y="720" type="line"/>
      <point x="132" y="399" type="line"/>
      <point x="23" y="399" type="line"/>
      <point x="47" y="720" type="line"/>
    </contour>
  </outline>
</glyph>
<glyph name="quotedblbase" format="1">
  <advance width="510"/>
  <unicode hex="201E"/>
  <outline>
    <contour>
      <point x="502" y="208" type="line"/>
      <point x="374" y="-113" type="line"/>
      <point x="270" y="-113" type="line"/>
      <point x="294" y="208" type="line"/>
    </contour>
    <contour>
      <point x="255" y="208" type="line"/>
      <point x="127" y="-113" type="line"/>
      <point x="23" y="-113" type="line"/>
      <point x="47" y="208" type="line"/>
    </contour>
  </outline>
</glyph>
<glyph name="dagger" format="1">
  <advance width="510"/>
  <unicode hex="2020"/>
  <outline>
    <contour>
      <point x="490" y="419" type="line"/>
      <point x="313" y="465" type="line"/>
      <point x="360" y="337" type="line"/>
      <point x="290" y="0" type="line"/>
      <point x="220" y="0" type="line"/>
      <point x="150" y="337" type="line"/>
      <point x="197" y="465" type="line"/>
      <point x="20" y="419" type="line"/>
      <point x="20" y="570" type="line"/>
      <point x="197" y="523" type="line"/>
      <point x="150" y="720" type="line"/>
      <point x="360" y="720" type="line"/>
      <point x="313" y="523" type="line"/>
      <point x="490" y="570" type="line"/>
    </contour>
  </outline>
</glyph>
<glyph name="daggerdbl" format="1">
  <advance width="540"/>
  <unicode hex="2021"/>
  <outline>
    <contour>
      <point x="505" y="130" type="line"/>
      <point x="323" y="177" type="line"/>
      <point x="375" y="0" type="line"/>
      <point x="165" y="0" type="line"/>
      <point x="217" y="177" type="line"/>
      <point x="35" y="130" type="line"/>
      <point x="35" y="281" type="line"/>
      <point x="217" y="235" type="line"/>
      <point x="168" y="360" type="line"/>
      <point x="217" y="485" type="line"/>
      <point x="35" y="439" type="line"/>
      <point x="35" y="590" type="line"/>
      <point x="217" y="543" type="line"/>
      <point x="165" y="720" type="line"/>
      <point x="375" y="720" type="line"/>
      <point x="323" y="543" type="line"/>
      <point x="505" y="590" type="line"/>
      <point x="505" y="439" type="line"/>
      <point x="323" y="485" type="line"/>
      <point x="371" y="360" type="line"/>
      <point x="323" y="235" type="line"/>
      <point x="505" y="281" type="line"/>
    </contour>
  </outline>
</glyph>
<glyph name="guilsinglleft" format="1">
  <advance width="304"/>
  <unicode hex="2039"/>
  <outline>
    <contour>
      <point x="279" y="65" type="line"/>
      <point x="175" y="65" type="line"/>
      <point x="10" y="271" type="line"/>
      <point x="175" y="477" type="line"/>
      <point x="279" y="477" type="line"/>
      <point x="212" y="271" type="line"/>
    </contour>
  </outline>
</glyph>
<glyph name="trademark" format="1">
  <advance width="780"/>
  <unicode hex="2122"/>
  <outline>
    <contour>
      <point x="745" y="382" type="line"/>
      <point x="643" y="382" type="line"/>
      <point x="643" y="604" type="line"/>
      <point x="641" y="604" type="line"/>
      <point x="587" y="382" type="line"/>
      <point x="493" y="382" type="line"/>
      <point x="440" y="604" type="line"/>
      <point x="438" y="604" type="line"/>
      <point x="438" y="382" type="line"/>
      <point x="336" y="382" type="line"/>
      <point x="336" y="720" type="line"/>
      <point x="494" y="720" type="line"/>
      <point x="541" y="522" type="line"/>
      <point x="543" y="522" type="line"/>
      <point x="592" y="720" type="line"/>
      <point x="745" y="720" type="line"/>
    </contour>
    <contour>
      <point x="301" y="631" type="line"/>
      <point x="216" y="631" type="line"/>
      <point x="216" y="382" type="line"/>
      <point x="111" y="382" type="line"/>
      <point x="111" y="631" type="line"/>
      <point x="26" y="631" type="line"/>
      <point x="26" y="720" type="line"/>
      <point x="301" y="720" type="line"/>
    </contour>
  </outline>
</glyph>
<glyph name="fl" format="1">
  <advance width="714"/>
  <unicode hex="FB02"/>
  <outline>
    <contour>
      <point x="673" y="0" type="line"/>
      <point x="469" y="0" type="line"/>
      <point x="469" y="730" type="line"/>
      <point x="673" y="754" type="line"/>
    </contour>
    <contour>
      <point x="425" y="618" type="line"/>
      <point x="407" y="622"/>
      <point x="390" y="624"/>
      <point x="365" y="624" type="curve" smooth="yes"/>
      <point x="319" y="624"/>
      <point x="300" y="608"/>
      <point x="300" y="566" type="curve" smooth="yes"/>
      <point x="300" y="540" type="line"/>
      <point x="424" y="540" type="line"/>
      <point x="424" y="406" type="line"/>
      <point x="300" y="406" type="line"/>
      <point x="300" y="0" type="line"/>
      <point x="99" y="0" type="line"/>
      <point x="99" y="406" type="line"/>
      <point x="9" y="406" type="line"/>
      <point x="9" y="540" type="line"/>
      <point x="99" y="540" type="line"/>
      <point x="99" y="561" type="line" smooth="yes"/>
      <point x="99" y="692"/>
      <point x="170" y="759"/>
      <point x="308" y="759" type="curve" smooth="yes"/>
      <point x="359" y="759"/>
      <point x="393" y="755"/>
      <point x="425" y="748" type="curve"/>
    </contour>
  </outline>
</glyph>
<glyph name="f_f_l" format="1">
  <advance width="1084"/>
  <unicode hex="FB04"/>
  <outline>
    <contour>
      <point x="1043" y="0" type="line"/>
      <point x="839" y="0" type="line"/>
      <point x="839" y="730" type="line"/>
      <point x="1043" y="754" type="line"/>
    </contour>
    <contour>
      <point x="795" y="618" type="line"/>
      <point x="777" y="622"/>
      <point x="760" y="624"/>
      <point x="735" y="624" type="curve" smooth="yes"/>
      <point x="689" y="624"/>
      <point x="670" y="608"/>
      <point x="670" y="566" type="curve" smooth="yes"/>
      <point x="670" y="540" type="line"/>
      <point x="794" y="540" type="line"/>
      <point x="794" y="406" type="line"/>
      <point x="670" y="406" type="line"/>
      <point x="670" y="0" type="line"/>
      <point x="469" y="0" type="line"/>
      <point x="469" y="406" type="line"/>
      <point x="300" y="406" type="line"/>
      <point x="300" y="0" type="line"/>
      <point x="99" y="0" type="line"/>
      <point x="99" y="406" type="line"/>
      <point x="9" y="406" type="line"/>
      <point x="9" y="540" type="line"/>
      <point x="99" y="540" type="line"/>
      <point x="99" y="561" type="line" smooth="yes"/>
      <point x="99" y="692"/>
      <point x="170" y="759"/>
      <point x="308" y="759" type="curve" smooth="yes"/>
      <point x="359" y="759"/>
      <point x="393" y="755"/>
      <point x="425" y="748" type="curve"/>
      <point x="425" y="618" type="line"/>
      <point x="407" y="622"/>
      <point x="390" y="624"/>
      <point x="365" y="624" type="curve" smooth="yes"/>
      <point x="319" y="624"/>
      <point x="300" y="608"/>
      <point x="300" y="566" type="curve" smooth="yes"/>
      <point x="300" y="540" type="line"/>
      <point x="469" y="540" type="line"/>
      <point x="469" y="561" type="line" smooth="yes"/>
      <point x="469" y="692"/>
      <point x="540" y="759"/>
      <point x="678" y="759" type="curve" smooth="yes"/>
      <point x="729" y="759"/>
      <point x="763" y="755"/>
      <point x="795" y="748" type="curve"/>
    </contour>
  </outline>
</glyph>
<glyph name="I.salt" format="1">
  <advance width="304"/>
  <outline>
    <contour>
      <point x="260" y="0" type="line"/>
      <point x="44" y="0" type="line"/>
      <point x="44" y="720" type="line"/>
      <point x="260" y="720" type="line"/>
    </contour>
  </outline>
</glyph>
<glyph name="bullet" format="1">
  <advance width="476"/>
  <outline>
    <contour>
      <point x="445" y="373" type="curve" smooth="yes"/>
      <point x="445" y="257"/>
      <point x="354" y="166"/>
      <point x="238" y="166" type="curve" smooth="yes"/>
      <point x="122" y="166"/>
      <point x="31" y="257"/>
      <point x="31" y="373" type="curve" smooth="yes"/>
      <point x="31" y="489"/>
      <point x="122" y="580"/>
      <point x="238" y="580" type="curve" smooth="yes"/>
      <point x="354" y="580"/>
      <point x="445" y="489"/>
    </contour>
  </outline>
</glyph>
<glyph name="registered" format="1">
  <advance width="502"/>
  <outline>
    <contour>
      <point x="474" y="504" type="curve" smooth="yes"/>
      <point x="474" y="376"/>
      <point x="379" y="280"/>
      <point x="250" y="280" type="curve" smooth="yes"/>
      <point x="122" y="280"/>
      <point x="28" y="374"/>
      <point x="28" y="503" type="curve" smooth="yes"/>
      <point x="28" y="631"/>
      <point x="123" y="727"/>
      <point x="252" y="727" type="curve" smooth="yes"/>
      <point x="380" y="727"/>
      <point x="474" y="633"/>
    </contour>
    <contour>
      <point x="445" y="503" type="curve" smooth="yes"/>
      <point x="445" y="618"/>
      <point x="366" y="702"/>
      <point x="250" y="702" type="curve" smooth="yes"/>
      <point x="135" y="702"/>
      <point x="57" y="619"/>
      <point x="57" y="504" type="curve" smooth="yes"/>
      <point x="57" y="389"/>
      <point x="136" y="305"/>
      <point x="252" y="305" type="curve" smooth="yes"/>
      <point x="367" y="305"/>
      <point x="445" y="388"/>
    </contour>
    <contour>
      <point x="370" y="379" type="line"/>
      <point x="288" y="379" type="line"/>
      <point x="241" y="476" type="line"/>
      <point x="234" y="476" type="line"/>
      <point x="234" y="379" type="line"/>
      <point x="156" y="379" type="line"/>
      <point x="156" y="638" type="line"/>
      <point x="259" y="638" type="line" smooth="yes"/>
      <point x="318" y="638"/>
      <point x="357" y="613"/>
      <point x="357" y="558" type="curve" smooth="yes"/>
      <point x="357" y="526"/>
      <point x="342" y="502"/>
      <point x="314" y="488" type="curve"/>
    </contour>
    <contour>
      <point x="282" y="557" type="curve" smooth="yes"/>
      <point x="282" y="577"/>
      <point x="270" y="587"/>
      <point x="249" y="587" type="curve" smooth="yes"/>
      <point x="228" y="587" type="line"/>
      <point x="228" y="524" type="line"/>
      <point x="249" y="524" type="line" smooth="yes"/>
      <point x="271" y="524"/>
      <point x="282" y="536"/>
    </contour>
  </outline>
</glyph>
